HIERARCHY
ROOT Hips
{
	OFFSET 0.000000 0.000000 0.000000 
	CHANNELS 6 Xposition Yposition Zposition Yrotation Zrotation Xrotation 
	JOINT Lumbar
	{
		OFFSET 0.000000 0.000000 0.000000 
		CHANNELS 3 Zrotation Xrotation Yrotation
		JOINT Neck
		{
			OFFSET 0.000000 0.445665 0.000000 
			CHANNELS 3 Zrotation Xrotation Yrotation
			End Site
			{
				OFFSET 0.000000 0.227535 0.000000 
			}
		}
		JOINT RightShoulder
		{
			OFFSET 0.019635 0.377685 0.194865 
			CHANNELS 3 Zrotation Xrotation Yrotation
			JOINT RightElbow
			{
				OFFSET 0.000000 -0.243375 0.000000 
				CHANNELS 2 Zrotation Yrotation
				JOINT RightWrist
				{
					OFFSET 0.000000 -0.264825 0.000000 
					CHANNELS 2 Zrotation Xrotation
					End Site
					{
						OFFSET 0.006600 -0.176220 0.000990 
					}
				}
			}
		}
		JOINT LeftShoulder
		{
			OFFSET 0.019635 0.377685 -0.194865 
			CHANNELS 3 Zrotation Xrotation Yrotation
			JOINT LeftElbow
			{
				OFFSET 0.000000 -0.243375 0.000000 
				CHANNELS 2 Zrotation Yrotation
				JOINT LeftWrist
				{
					OFFSET 0.000000 -0.264825 0.000000 
					CHANNELS 2 Zrotation Xrotation
					End Site
					{
						OFFSET 0.006600 -0.176220 -0.000990 
					}
				}
			}
		}
	}
	JOINT RightHip
	{
		OFFSET 0.052140 -0.069960 0.075570 
		CHANNELS 3 Zrotation Xrotation Yrotation
		JOINT RightKnee
		{
			OFFSET 0.000000 -0.402270 0.000000 
			CHANNELS 1 Zrotation
			JOINT RightAnkle
			{
				OFFSET 0.000000 -0.404085 0.000000 
				CHANNELS 3 Zrotation Xrotation Yrotation
				End Site
				{
					OFFSET 0.204105 -0.089430 0.008415 
				}
			}
		}
	}
	JOINT LeftHip
	{
		OFFSET 0.052140 -0.069960 -0.075570 
		CHANNELS 3 Zrotation Xrotation Yrotation
		JOINT LeftKnee
		{
			OFFSET 0.000000 -0.402270 0.000000 
			CHANNELS 1 Zrotation
			JOINT LeftAnkle
			{
				OFFSET 0.000000 -0.404085 0.000000 
				CHANNELS 3 Zrotation Xrotation Yrotation
				End Site
				{
					OFFSET 0.204105 -0.089430 -0.008415 
				}
			}
		}
	}
}
MOTION
Frames: 33
Frame Time: 0.02
-1.32214 -0.27657 0.35567 733.63052 -28.41998 -0.45499 36.79726 4.5052 34.60482 6.34326 3.57113 -2.11994 47.26421 -17.96367 -67.70655 10.06114 77.7532 -13.40458 -1.74571 -54.88289 3.94443 50.46086 52.25998 -92.08543 3.0097 -2.75197 42.70535 -1.93768 -16.60164 -45.53776 -6.47051 -2.15991 -3.27987 61.26083 -6.79242 10.01523 -4.51338 -8.74854 2.51842 3.82191
-1.29509 -0.27627 0.35357 733.97249 -27.89412 -0.15088 36.79132 4.07639 34.68368 6.21443 3.46687 -2.11994 47.23675 -17.27965 -67.0715 10.12806 77.68796 -13.64119 -1.69915 -56.04066 5.3226 48.0193 51.11109 -101.8998 6.44866 -4.42311 42.64374 -2.32401 -15.37469 -48.94241 -6.8977 -2.03948 -3.24126 61.56388 -6.62093 11.49971 -8.02372 -8.6176 2.29819 3.67091
-1.26702 -0.27646 0.35117 734.20823 -27.19865 0.11592 36.77216 3.58658 34.64185 6.12343 3.47155 -2.11994 47.22901 -16.54517 -67.44458 9.95479 78.17517 -13.87209 -1.84907 -57.44653 7.21502 44.06856 49.94037 -114.19662 10.8036 -6.51508 42.86688 -2.74231 -13.79422 -53.00296 -7.43737 -1.88036 -3.18932 62.72758 -5.84341 13.22212 -15.26146 -8.47082 2.05502 3.48291
-1.23955 -0.2763 0.34894 734.47491 -26.5779 0.38873 36.7483 3.1398 34.63582 6.01617 3.42856 -2.11994 47.23011 -15.82398 -67.44434 9.87715 78.45626 -14.1012 -1.9236 -58.61417 8.76839 40.96326 48.81019 -124.50816 14.38612 -8.29675 43.01327 -3.14922 -12.39492 -56.75224 -7.91334 -1.74662 -3.14663 63.39908 -5.35768 14.76308 -20.60177 -8.32541 1.83172 3.31816
-1.21145 -0.27673 0.34656 734.81254 -25.96279 0.70849 36.76962 2.62778 34.70922 5.90283 3.38049 -2.11994 47.15135 -15.1391 -67.07068 9.86036 78.5356 -14.3546 -1.93424 -60.31114 10.7684 37.20493 47.547 -138.39751 19.45085 -10.57602 42.93943 -3.54514 -10.90632 -60.59052 -8.44296 -1.57956 -3.09028 64.46969 -4.8109 16.59986 -26.77927 -8.20273 1.5674 3.12604
-1.18445 -0.27601 0.34443 734.98028 -25.29987 0.91979 36.69552 2.23772 34.58434 5.81395 3.36705 -2.11994 47.24369 -14.36716 -67.70533 9.66122 79.15959 -14.55559 -2.12288 -60.96443 11.97249 34.40943 46.55859 -145.52772 21.69681 -11.93052 43.38875 -3.96883 -9.52369 -64.36251 -8.88715 -1.47323 -3.05946 64.92633 -4.24257 17.88325 -32.10598 -8.03092 1.38272 2.98185
-1.16063 -0.27214 0.34303 734.67727 -24.51519 0.86017 36.33863 2.19484 33.99822 5.75867 3.43226 -2.11994 47.82529 -13.38205 -71.06256 8.98133 81.29576 -14.59094 -2.80221 -58.67247 10.68997 35.03172 46.31504 -132.28716 15.39924 -10.50567 45.23894 -4.48441 -8.485 -68.07812 -9.07067 -1.53888 -3.09984 63.44924 -3.7836 17.56707 -34.18119 -7.71173 1.4333 2.9836
-1.13797 -0.26706 0.34191 734.21246 -23.69445 0.68959 35.89008 2.27731 33.20762 5.73118 3.52631 -2.11994 48.57548 -12.30976 -75.37075 8.13176 83.93938 -14.57629 -3.64695 -55.31917 8.61521 36.60941 46.35187 -112.34819 6.32521 -8.15684 47.59828 -5.0228 -7.57198 -71.64484 -9.16401 -1.6675 -3.16661 61.3341 -3.3193 16.68963 -35.27408 -7.34658 1.56334 3.03413
-1.11485 -0.26242 0.3407 733.83925 -22.91073 0.55676 35.49797 2.30586 32.47352 5.7072 3.60078 -2.11994 49.23504 -11.2676 -79.12571 7.38271 86.2582 -14.59875 -4.38571 -52.45737 7.00956 37.48984 46.27429 -96.19711 -1.12495 -6.31175 49.71118 -5.53521 -6.62395 -75.09703 -9.29651 -1.77128 -3.22323 59.53188 -2.84281 16.08009 -36.81208 -7.01283 1.65082 3.05942
-1.09143 -0.25824 0.33932 733.38434 -22.0333 0.47464 35.04301 2.32094 31.88635 5.61673 3.70719 -2.11994 49.95364 -10.26095 -83.42253 6.52733 88.98696 -14.5626 -5.25913 -49.57784 4.9679 39.40747 46.14427 -77.02289 -10.05415 -4.13101 51.90903 -6.11338 -5.56883 -79.36225 -9.43973 -1.85964 -3.27252 57.6591 -2.40626 15.426 -38.4806 -6.63436 1.7644 3.09624
-1.06891 -0.25282 0.33835 733.06472 -21.34555 0.26293 34.69736 2.39272 30.94937 5.67047 3.75153 -2.11994 50.58995 -9.16366 -86.80834 5.85529 90.98344 -14.63398 -5.89146 -46.46449 3.63169 39.43709 46.18622 -62.48557 -16.59564 -2.42011 54.03278 -6.56119 -4.77301 -81.86399 -9.53887 -1.9932 -3.34239 55.7747 -1.89402 14.72642 -39.60133 -6.33808 1.84312 3.12126
-1.04858 -0.24408 0.33842 733.14063 -21.18363 -0.29583 34.67603 2.6075 29.07099 6.11789 3.62536 -2.11994 50.94962 -7.8098 -87.40022 5.74026 90.76059 -15.0377 -5.79395 -43.0977 4.49951 33.80658 46.66977 -62.69372 -15.68338 -2.26763 55.95055 -6.62859 -4.64801 -79.7634 -9.52783 -2.25698 -3.47244 53.97582 -1.16912 14.05238 -39.38223 -6.2822 1.80395 3.10094
-1.02911 -0.23416 0.33889 733.36222 -21.21562 -0.97809 34.76806 2.8723 26.85402 6.7082 3.43391 -2.11994 51.2215 -6.37368 -87.04557 5.81525 89.79355 -15.54716 -5.45137 -39.50754 6.08913 26.29127 47.30989 -67.73103 -12.31039 -2.61121 57.75285 -6.56605 -4.78338 -75.85559 -9.47679 -2.56046 -3.62055 52.18982 -0.37236 13.34694 -38.6397 -6.31025 1.72765 3.06746
-1.00924 -0.22487 0.33919 733.52905 -21.16455 -1.5927 34.80802 3.10306 24.80813 7.23222 3.26625 -2.11994 51.53958 -4.9929 -87.14977 5.7981 89.21328 -15.9928 -5.23578 -35.92984 7.30646 19.7851 47.85568 -70.34549 -10.18807 -2.70258 59.52438 -6.57335 -4.81168 -72.60931 -9.45058 -2.83225 -3.754 50.4194 0.38544 12.6472 -38.16224 -6.29858 1.66969 3.04061
-0.98947 -0.2151 0.33946 733.64134 -21.09214 -2.25924 34.84653 3.38515 22.67826 7.76565 3.1235 -2.11994 51.83937 -3.53099 -87.16847 5.79844 88.44873 -16.50269 -4.96095 -32.68588 8.6885 12.66365 48.51044 -73.68861 -7.60504 -2.87499 61.66077 -6.53833 -4.79951 -69.99668 -9.3938 -3.16361 -3.9155 48.53835 1.17116 11.96931 -37.53782 -6.29215 1.60763 3.01237
-0.96966 -0.2061 0.33988 733.90458 -21.10897 -2.84628 34.91691 3.5715 20.65077 8.30965 2.91422 -2.11994 52.15116 -2.2225 -87.12565 5.81081 87.8812 -16.90522 -4.74813 -28.71423 9.90269 6.36826 48.97008 -76.75118 -5.3588 -3.00842 63.00883 -6.55728 -4.92824 -65.68225 -9.39161 -3.37979 -4.02266 46.897 1.91471 11.23933 -37.10785 -6.29513 1.54511 2.98369
-0.94975 -0.19935 0.34066 734.54418 -21.33971 -3.17638 35.04117 3.47321 18.94646 8.87619 2.5269 -2.11994 52.54124 -1.33375 -87.15373 5.80323 88.06462 -16.97844 -4.77396 -22.74347 10.53608 2.77649 48.87003 -77.85709 -4.65489 -2.91638 62.15475 -6.78224 -5.41598 -56.72352 -9.5555 -3.26581 -3.97427 45.93652 2.53216 10.43322 -37.34322 -6.30626 1.48243 2.95323
-0.92974 -0.19343 0.34159 735.33207 -21.65063 -3.42319 35.19492 3.27805 17.3664 9.44262 2.07715 -2.11994 52.94005 -0.60679 -87.14307 5.80442 88.46399 -16.94066 -4.86833 -16.06796 10.96931 0.08424 48.56675 -78.54671 -4.3605 -2.77197 60.51823 -7.06086 -6.03131 -46.18993 -9.77439 -3.03494 -3.87072 45.21779 3.1038 9.56941 -37.79957 -6.32422 1.42148 2.92319
-0.90964 -0.18724 0.34246 736.05644 -21.91566 -3.71197 35.34024 3.1314 15.75759 9.99083 1.66197 -2.11994 53.31992 0.17759 -87.14287 5.80544 88.74654 -16.95965 -4.92569 -9.74153 11.45824 -2.99991 48.33956 -79.46183 -3.85612 -2.65379 59.273 -7.29864 -6.56343 -36.62882 -9.96587 -2.85855 -3.79291 44.37457 3.6902 8.69284 -38.15558 -6.33679 1.36483 2.89525
-0.89014 -0.18059 0.34333 736.77073 -22.22872 -3.98682 35.46978 2.96617 14.01748 10.62268 1.21634 -2.11994 53.76465 1.03138 -87.15224 5.79231 89.08543 -16.95914 -4.99973 -3.25924 12.11744 -6.22286 48.17349 -80.39125 -3.36248 -2.54191 57.8752 -7.60262 -7.20437 -25.9104 -10.16914 -2.67683 -3.71261 43.58517 4.30185 7.97097 -38.48107 -6.35969 1.28623 2.85743
-0.86936 -0.17509 0.34421 737.53775 -22.45652 -4.27046 35.63605 2.81782 12.58774 11.07653 0.82268 -2.11994 54.07171 1.703 -87.12987 5.814 89.36401 -16.96707 -5.05804 3.0304 12.3693 -8.91576 47.84633 -81.12568 -2.98293 -2.39831 56.60848 -7.78158 -7.65415 -17.26472 -10.3576 -2.4792 -3.62456 42.751 4.85266 6.9242 -38.94372 -6.36438 1.25325 2.84016
-0.84502 -0.17274 0.34512 738.42802 -22.44371 -4.58677 35.9105 2.72278 11.96239 11.05435 0.56644 -2.11994 54.04663 1.89188 -87.16321 5.87813 89.4581 -17.06513 -5.06031 8.88486 11.50914 -10.37943 46.97738 -81.44944 -2.7576 -2.17818 55.91278 -7.61683 -7.46908 -14.62552 -10.52564 -2.25496 -3.52487 41.65164 5.21346 4.90596 -39.61242 -6.2926 1.35487 2.88249
-0.81942 -0.17151 0.34602 739.36339 -22.33901 -4.91568 36.21769 2.65051 11.65139 10.8495 0.36894 -2.11994 53.87431 1.9048 -87.1485 5.98415 89.48061 -17.16894 -5.04448 14.46628 10.25069 -11.32725 45.97725 -81.56485 -2.65333 -1.92656 55.37194 -7.32288 -7.09958 -14.15156 -10.67129 -2.02055 -3.41987 40.51587 5.51896 2.58023 -40.43548 -6.20605 1.50118 2.94515
-0.79444 -0.16967 0.3469 740.26768 -22.26548 -5.24692 36.50019 2.57931 11.21226 10.71732 0.15889 -2.11994 53.73627 2.01224 -87.06896 6.10584 89.51746 -17.24184 -5.03591 19.99915 9.19285 -12.49422 45.13598 -81.73248 -2.54935 -1.68717 54.75087 -7.07844 -6.86352 -12.76688 -10.80443 -1.79813 -3.31966 39.44878 5.8731 0.45253 -41.26958 -6.14242 1.62078 2.99644
-0.76923 -0.16827 0.34788 741.22003 -22.23816 -5.54421 36.82532 2.45855 10.71341 10.6286 -0.11301 -2.11994 53.73401 2.05828 -87.34143 6.08778 89.64059 -17.42481 -5.03516 26.29929 8.03948 -13.70129 43.8797 -82.05985 -2.23703 -1.45213 54.14944 -6.87241 -6.42459 -11.0304 -11.03294 -1.54096 -3.20758 38.16345 6.1326 -1.92639 -41.77211 -6.01223 1.76594 3.0561
-0.74422 -0.1662 0.34865 742.08341 -22.0935 -5.91266 37.06889 2.4452 10.41411 10.40632 -0.24142 -2.11994 53.41667 2.18543 -86.8849 6.36264 89.56128 -17.38831 -5.01108 30.91009 7.00081 -14.70657 43.44552 -82.01992 -2.36682 -1.20483 53.54727 -6.55782 -6.3602 -10.54439 -11.05966 -1.35477 -3.11957 37.32915 6.56898 -3.85043 -42.99426 -6.01508 1.87033 3.10394
-0.71987 -0.16204 0.349 742.66701 -21.63126 -6.5053 37.08006 2.74446 10.57223 9.8565 0.01327 -2.11994 52.24143 2.6415 -84.29913 7.50494 88.96764 -16.6836 -4.9436 31.06198 6.30945 -15.33914 45.43128 -80.92225 -3.82626 -0.89894 52.96907 -5.95099 -7.39464 -13.14355 -10.50933 -1.37194 -3.10045 37.67626 7.57332 -4.47379 -46.201 -6.40571 1.835 3.10724
-0.69581 -0.15716 0.34913 743.16186 -21.05683 -7.16343 37.00768 3.14754 10.92356 9.17912 0.41031 -2.11994 50.75893 3.17497 -81.00514 8.92806 88.16784 -15.76899 -4.85028 29.49215 5.76049 -15.7766 48.2268 -79.47935 -5.7011 -0.58772 52.37801 -5.24369 -8.80701 -16.90591 -9.7611 -1.46059 -3.10582 38.48993 8.7454 -4.62134 -50.1142 -6.92748 1.75987 3.0991
-0.67175 -0.15259 0.34927 743.71319 -20.54364 -7.77223 36.9729 3.48929 11.19593 8.56252 0.74182 -2.11994 49.43229 3.63263 -78.12013 10.17688 87.44212 -14.99177 -4.75704 28.61761 5.19134 -16.2736 50.57681 -78.26057 -7.29027 -0.30084 51.75339 -4.59782 -10.0343 -20.0357 -9.11983 -1.51388 -3.09951 39.13786 9.79775 -4.96814 -53.68593 -7.37825 1.71391 3.10088
-0.64708 -0.14813 0.34976 744.20291 -19.98332 -8.46546 36.94097 3.89117 11.43913 7.92809 1.07932 -2.11994 48.03064 4.25372 -74.86729 11.62258 86.79202 -14.04031 -4.71066 28.10796 4.42097 -16.88841 53.254 -76.75869 -9.28356 0.0783 51.29506 -3.88055 -11.31595 -23.6724 -8.40607 -1.57882 -3.09525 39.59334 11.03213 -5.40317 -57.36908 -7.87699 1.62379 3.08393
-0.62377 -0.14327 0.34949 744.79316 -19.49656 -8.99646 36.88266 4.1926 11.78846 7.30239 1.43682 -2.11994 46.71591 4.55745 -72.21088 12.72645 85.94241 -13.39817 -4.56304 26.42535 4.10779 -17.20153 55.43792 -75.75695 -10.54391 0.26787 50.4916 -3.29026 -12.57095 -26.50959 -7.7964 -1.63672 -3.09267 40.55576 11.9275 -5.53018 -60.96117 -8.30672 1.6143 3.10238
-0.60407 -0.13731 0.34722 745.73436 -19.23368 -9.07895 36.77352 4.18811 12.35031 6.73679 1.81959 -2.11994 45.70182 3.94719 -71.39401 12.80001 84.54068 -13.69292 -4.12256 21.99038 5.02821 -16.86772 56.11341 -76.30096 -9.58122 -0.08297 48.68525 -3.07151 -13.70746 -26.77656 -7.52426 -1.65712 -3.0884 42.84649 11.84881 -4.9858 -64.33424 -8.51777 1.84838 3.2269
-0.58575 -0.13098 0.34419 746.76985 -19.05057 -8.99337 36.64048 4.07969 13.01635 6.1843 2.21641 -2.11994 44.78903 3.0196 -71.19855 12.52347 82.95558 -14.30002 -3.58486 16.42533 6.40138 -16.20793 56.25646 -77.33967 -7.88756 -0.62234 46.5412 -2.985 -14.79553 -26.20229 -7.36352 -1.66823 -3.0851 45.6222 11.42243 -4.13646 -67.54843 -8.65432 2.16272 3.38634
